<svg viewBox="0 0 480 220" xmlns="http://www.w3.org/2000/svg" role="img" aria-label="8BASE / PHOBOS emblem">
  <defs>
    <radialGradient id="g-8base" cx="50%" cy="46%" r="62%">
      <stop offset="0%" stop-color="#9acd32" stop-opacity="0.22"/><stop offset="100%" stop-color="#9acd32" stop-opacity="0"/>
    </radialGradient>
    <filter id="f-8base" x="-40%" y="-40%" width="180%" height="180%">
      <feGaussianBlur stdDeviation="4" result="b"/><feMerge><feMergeNode in="b"/><feMergeNode in="SourceGraphic"/></feMerge>
    </filter>
    <g id="sig-8base">
    <path d="M229 58 L251 58 L267 74 L267 96 L251 112 L229 112 L213 96 L213 74 Z" fill="#9acd32" fill-opacity="0.08" stroke="#c7e48e" stroke-width="5" stroke-linejoin="miter"/>
    <path d="M226 112 L254 112 L272 130 L272 152 L254 170 L226 170 L208 152 L208 130 Z" fill="#9acd32" fill-opacity="0.06" stroke="#9acd32" stroke-width="5" stroke-linejoin="miter"/>
    <path d="M228 86 L252 80 L245 95 Z" fill="#9acd32"/>
    <path d="M233 86 L247 83 L243 91 Z" fill="#f2f8e4" fill-opacity="0.95"/>
    <path d="M240 128 L235 142 L242 156" fill="none" stroke="#9acd32" stroke-width="2.5" stroke-linecap="round" stroke-opacity="0.75"/>
    </g>
  </defs>
  <rect width="480" height="220" fill="#141418"/>
  <rect width="480" height="220" fill="url(#g-8base)"/>
  <g stroke="#9acd32" stroke-opacity="0.07" stroke-width="1"><path d="M0 55H480M0 110H480M0 165H480M96 0V220M192 0V220M288 0V220M384 0V220"/></g>
  <use href="#sig-8base" transform="translate(316 138) scale(2.6) translate(-240 -104)" opacity="0.055"/>
  <g stroke="#9acd32" stroke-opacity="0.55" stroke-width="2" fill="none"><path d="M14 30V14H30M450 14H466V30M466 190V206H450M30 206H14V190"/></g>
  <g stroke="#9acd32" stroke-opacity="0.30" stroke-width="1.2" fill="none">
    <circle cx="240" cy="104" r="86"/>
    <path d="M240 8 V26 M240 182 V200 M144 104 H126 M336 104 H354"/>
  </g>
  <rect x="8" y="8" width="464" height="204" rx="4" fill="none" stroke="#6b7280" stroke-width="1.5" stroke-opacity="0.65"/><text x="240" y="21" text-anchor="middle" font-family="'Space Mono',monospace" font-size="8.5" fill="#6b7280" fill-opacity="0.85" letter-spacing="3">LINE: PHOBOS</text>
  <g filter="url(#f-8base)"><use href="#sig-8base"/></g>
  
  
  <g transform="rotate(-8 240 152)">
    <rect x="-20" y="134" width="520" height="36" fill="#d92b2b" fill-opacity="0.16"/>
    <path d="M-20 134 H500 M-20 170 H500" stroke="#ff5148" stroke-width="1.5" stroke-opacity="0.9"/>
    <text x="240" y="158" text-anchor="middle" font-family="'Space Mono',monospace" font-weight="700" font-size="15" fill="#ff6b61" letter-spacing="6">SEIZED · ARRESTED · 2025</text>
  </g>
  <text x="36" y="203" font-family="'Space Mono',monospace" font-size="10" fill="#9acd32" fill-opacity="0.75" letter-spacing="2">8BASE / PHOBOS</text>
  <text x="444" y="203" text-anchor="end" font-family="'Space Mono',monospace" font-size="10" fill="#9acd32" fill-opacity="0.45" letter-spacing="2">SIG-21</text>
  <text x="318" y="200" text-anchor="end" font-family="'Space Mono',monospace" font-size="8.5" fill="#9acd32" fill-opacity="0.55" letter-spacing="2">GEN 4</text><path d="M328 196 L333 191 L338 196 L333 201 Z" fill="#9acd32" fill-opacity="0.30"/><path d="M342 196 L347 191 L352 196 L347 201 Z" fill="#9acd32" fill-opacity="0.30"/><path d="M356 196 L361 191 L366 196 L361 201 Z" fill="#9acd32" fill-opacity="0.30"/><path d="M370 196 L375 191 L380 196 L375 201 Z" fill="#9acd32" fill-opacity="1"/>
</svg>