<svg viewBox="0 0 480 220" xmlns="http://www.w3.org/2000/svg" role="img" aria-label="AKIRA emblem">
  <defs>
    <radialGradient id="g-akira" cx="50%" cy="46%" r="62%">
      <stop offset="0%" stop-color="#e63946" stop-opacity="0.22"/><stop offset="100%" stop-color="#e63946" stop-opacity="0"/>
    </radialGradient>
    <filter id="f-akira" x="-40%" y="-40%" width="180%" height="180%">
      <feGaussianBlur stdDeviation="4" result="b"/><feMerge><feMergeNode in="b"/><feMergeNode in="SourceGraphic"/></feMerge>
    </filter>
    <g id="sig-akira">
    <path d="M202 58 L278 58 L290 94 L276 146 L240 160 L204 146 L190 94 Z" fill="#e63946" fill-opacity="0.07" stroke="#e63946" stroke-width="5" stroke-linejoin="miter"/>
    <path d="M214 58 L204 34 M266 58 L276 34" fill="none" stroke="#f19299" stroke-width="4.5" stroke-linecap="round"/>
    <path d="M240 58 L236 78 L242 92" fill="none" stroke="#e63946" stroke-width="2.5" stroke-opacity="0.8" stroke-linecap="round"/>
    <path d="M210 96 L234 90 L228 106 L212 108 Z" fill="#e63946"/>
    <path d="M270 96 L246 90 L252 106 L268 108 Z" fill="#e63946"/>
    <path d="M216 97 L230 93 L226 103 L217 104 Z" fill="#fce5e7" fill-opacity="0.95"/>
    <path d="M264 97 L250 93 L254 103 L263 104 Z" fill="#fce5e7" fill-opacity="0.95"/>
    <path d="M216 130 L224 138 L232 130 L240 138 L248 130 L256 138 L264 130" fill="none" stroke="#f19299" stroke-width="3" stroke-linejoin="miter"/>
    </g>
  </defs>
  <rect width="480" height="220" fill="#141418"/>
  <rect width="480" height="220" fill="url(#g-akira)"/>
  <g stroke="#e63946" stroke-opacity="0.07" stroke-width="1"><path d="M0 55H480M0 110H480M0 165H480M96 0V220M192 0V220M288 0V220M384 0V220"/></g>
  <use href="#sig-akira" transform="translate(316 138) scale(2.6) translate(-240 -104)" opacity="0.055"/>
  <g stroke="#e63946" stroke-opacity="0.55" stroke-width="2" fill="none"><path d="M14 30V14H30M450 14H466V30M466 190V206H450M30 206H14V190"/></g>
  <g stroke="#e63946" stroke-opacity="0.30" stroke-width="1.2" fill="none">
    <circle cx="240" cy="104" r="86"/>
    <path d="M240 8 V26 M240 182 V200 M144 104 H126 M336 104 H354"/>
  </g>
  <rect x="8" y="8" width="464" height="204" rx="4" fill="none" stroke="#9b59b6" stroke-width="1.5" stroke-opacity="0.65" stroke-dasharray="6 5"/><text x="240" y="21" text-anchor="middle" font-family="'Space Mono',monospace" font-size="8.5" fill="#9b59b6" fill-opacity="0.85" letter-spacing="3">LINE: CONTI · LINKED</text>
  <g filter="url(#f-akira)"><use href="#sig-akira"/></g>
  <g stroke="#9b59b6" stroke-width="2.5" fill="none" stroke-opacity="0.9" stroke-linejoin="miter"><path d="M414 36 L426 26 L438 36 M414 48 L426 38 L438 48 M414 60 L426 50 L438 60"/></g><text x="426" y="76" text-anchor="middle" font-family="'Space Mono',monospace" font-size="7.5" fill="#9b59b6" fill-opacity="0.75" letter-spacing="2">CONTI</text>
  
  <circle cx="316" cy="36" r="3.5" fill="#2ecc71">
    <animate attributeName="opacity" values="1;0.15;1" dur="2s" repeatCount="indefinite"/>
  </circle>
  <text x="382" y="40" text-anchor="end" font-family="'Space Mono',monospace" font-size="10" fill="#2ecc71" fill-opacity="0.85" letter-spacing="2">ACTIVE</text>
  <text x="36" y="203" font-family="'Space Mono',monospace" font-size="10" fill="#e63946" fill-opacity="0.75" letter-spacing="2">AKIRA</text>
  <text x="444" y="203" text-anchor="end" font-family="'Space Mono',monospace" font-size="10" fill="#e63946" fill-opacity="0.45" letter-spacing="2">SIG-01</text>
  <text x="318" y="200" text-anchor="end" font-family="'Space Mono',monospace" font-size="8.5" fill="#e63946" fill-opacity="0.55" letter-spacing="2">GEN 4</text><path d="M328 196 L333 191 L338 196 L333 201 Z" fill="#e63946" fill-opacity="0.30"/><path d="M342 196 L347 191 L352 196 L347 201 Z" fill="#e63946" fill-opacity="0.30"/><path d="M356 196 L361 191 L366 196 L361 201 Z" fill="#e63946" fill-opacity="0.30"/><path d="M370 196 L375 191 L380 196 L375 201 Z" fill="#e63946" fill-opacity="1"/>
</svg>