<svg viewBox="0 0 480 220" xmlns="http://www.w3.org/2000/svg" role="img" aria-label="ALPHV / BLACKCAT emblem">
  <defs>
    <radialGradient id="g-alphv" cx="50%" cy="46%" r="62%">
      <stop offset="0%" stop-color="#c0392b" stop-opacity="0.22"/><stop offset="100%" stop-color="#c0392b" stop-opacity="0"/>
    </radialGradient>
    <filter id="f-alphv" x="-40%" y="-40%" width="180%" height="180%">
      <feGaussianBlur stdDeviation="4" result="b"/><feMerge><feMergeNode in="b"/><feMergeNode in="SourceGraphic"/></feMerge>
    </filter>
    <g id="sig-alphv">
    <path d="M178 44 L206 78 Q240 68 274 78 L302 44 L307 102 Q307 142 275 160 Q240 176 205 160 Q173 142 173 102 Z" fill="#c0392b" fill-opacity="0.07" stroke="#c0392b" stroke-width="5.5" stroke-linejoin="miter"/>
    <path d="M203 106 L233 97 L227 114 L206 116 Z" fill="#e8574a"/>
    <path d="M277 106 L247 97 L253 114 L274 116 Z" fill="#e8574a"/>
    <path d="M210 106 L228 101 L224 110 L212 111 Z" fill="#f7e5e3" fill-opacity="0.95"/>
    <path d="M270 106 L252 101 L256 110 L268 111 Z" fill="#f7e5e3" fill-opacity="0.95"/>
    <path d="M233 132 L240 141 L247 132" fill="none" stroke="#dc928a" stroke-width="4" stroke-linecap="round"/>
    <path d="M240 141 V152" stroke="#dc928a" stroke-width="4" stroke-linecap="round"/>
    <path d="M168 118 L146 114 M170 130 L150 132 M312 118 L334 114 M310 130 L330 132" stroke="#c0392b" stroke-width="3" stroke-linecap="round" stroke-opacity="0.9"/>
    </g>
  </defs>
  <rect width="480" height="220" fill="#141418"/>
  <rect width="480" height="220" fill="url(#g-alphv)"/>
  <g stroke="#c0392b" stroke-opacity="0.07" stroke-width="1"><path d="M0 55H480M0 110H480M0 165H480M96 0V220M192 0V220M288 0V220M384 0V220"/></g>
  <use href="#sig-alphv" transform="translate(316 138) scale(2.6) translate(-240 -104)" opacity="0.055"/>
  <g stroke="#c0392b" stroke-opacity="0.55" stroke-width="2" fill="none"><path d="M14 30V14H30M450 14H466V30M466 190V206H450M30 206H14V190"/></g>
  <g stroke="#c0392b" stroke-opacity="0.30" stroke-width="1.2" fill="none">
    <circle cx="240" cy="104" r="86"/>
    <path d="M240 8 V26 M240 182 V200 M144 104 H126 M336 104 H354"/>
  </g>
  <rect x="8" y="8" width="464" height="204" rx="4" fill="none" stroke="#5b6b86" stroke-width="1.5" stroke-opacity="0.65"/><text x="240" y="21" text-anchor="middle" font-family="'Space Mono',monospace" font-size="8.5" fill="#5b6b86" fill-opacity="0.85" letter-spacing="3">LINE: DARKSIDE</text>
  <g filter="url(#f-alphv)"><use href="#sig-alphv"/></g>
  <g stroke="#7d8fb3" stroke-opacity="0.9" fill="none"><circle cx="426" cy="42" r="11" stroke-width="2.2"/><circle cx="426" cy="42" r="6.5" fill="#141418" stroke-width="2.2"/><path d="M426 26 V22 M426 58 V62 M410 42 H406 M442 42 H446" stroke-width="2"/></g><text x="426" y="76" text-anchor="middle" font-family="'Space Mono',monospace" font-size="7.5" fill="#7d8fb3" fill-opacity="0.75" letter-spacing="2">DARKSIDE</text>
  
  <g transform="rotate(-8 240 152)">
    <rect x="-20" y="134" width="520" height="36" fill="#d92b2b" fill-opacity="0.16"/>
    <path d="M-20 134 H500 M-20 170 H500" stroke="#ff5148" stroke-width="1.5" stroke-opacity="0.9"/>
    <text x="240" y="158" text-anchor="middle" font-family="'Space Mono',monospace" font-weight="700" font-size="15" fill="#ff6b61" letter-spacing="6">SEIZED · DEC 2023</text>
  </g>
  <text x="36" y="203" font-family="'Space Mono',monospace" font-size="10" fill="#c0392b" fill-opacity="0.75" letter-spacing="2">ALPHV / BLACKCAT</text>
  <text x="444" y="203" text-anchor="end" font-family="'Space Mono',monospace" font-size="10" fill="#c0392b" fill-opacity="0.45" letter-spacing="2">SIG-15</text>
  <text x="332" y="200" text-anchor="end" font-family="'Space Mono',monospace" font-size="8.5" fill="#c0392b" fill-opacity="0.55" letter-spacing="2">GEN 3</text><path d="M342 196 L347 191 L352 196 L347 201 Z" fill="#c0392b" fill-opacity="0.30"/><path d="M356 196 L361 191 L366 196 L361 201 Z" fill="#c0392b" fill-opacity="0.30"/><path d="M370 196 L375 191 L380 196 L375 201 Z" fill="#c0392b" fill-opacity="1"/>
</svg>