<svg viewBox="0 0 480 220" xmlns="http://www.w3.org/2000/svg" role="img" aria-label="CL0P emblem">
  <defs>
    <radialGradient id="g-clop" cx="50%" cy="46%" r="62%">
      <stop offset="0%" stop-color="#00897b" stop-opacity="0.22"/><stop offset="100%" stop-color="#00897b" stop-opacity="0"/>
    </radialGradient>
    <filter id="f-clop" x="-40%" y="-40%" width="180%" height="180%">
      <feGaussianBlur stdDeviation="4" result="b"/><feMerge><feMergeNode in="b"/><feMergeNode in="SourceGraphic"/></feMerge>
    </filter>
    <g id="sig-clop">
    <ellipse cx="240" cy="112" rx="30" ry="38" fill="#00897b" fill-opacity="0.06" stroke="#00897b" stroke-width="4.5"/>
    <path d="M240 78 V148" stroke="#00897b" stroke-width="3" stroke-opacity="0.9"/>
    <path d="M224 76 Q240 64 256 76" fill="none" stroke="#73beb6" stroke-width="4"/>
    <path d="M228 70 L218 56 M252 70 L262 56" stroke="#73beb6" stroke-width="3.5" stroke-linecap="round"/>
    <path d="M212 96 L190 86 M210 116 L186 116 M214 134 L194 148 M268 96 L290 86 M270 116 L294 116 M266 134 L286 148" stroke="#00897b" stroke-width="3.5" stroke-linecap="round"/>
    <circle cx="228" cy="100" r="2" fill="#def0ee" fill-opacity="0.9"/>
    <circle cx="252" cy="100" r="2" fill="#def0ee" fill-opacity="0.9"/>
    <circle cx="230" cy="124" r="2" fill="#def0ee" fill-opacity="0.9"/>
    <circle cx="250" cy="124" r="2" fill="#def0ee" fill-opacity="0.9"/>
    </g>
  </defs>
  <rect width="480" height="220" fill="#141418"/>
  <rect width="480" height="220" fill="url(#g-clop)"/>
  <g stroke="#00897b" stroke-opacity="0.07" stroke-width="1"><path d="M0 55H480M0 110H480M0 165H480M96 0V220M192 0V220M288 0V220M384 0V220"/></g>
  <use href="#sig-clop" transform="translate(316 138) scale(2.6) translate(-240 -104)" opacity="0.055"/>
  <g stroke="#00897b" stroke-opacity="0.55" stroke-width="2" fill="none"><path d="M14 30V14H30M450 14H466V30M466 190V206H450M30 206H14V190"/></g>
  <g stroke="#00897b" stroke-opacity="0.30" stroke-width="1.2" fill="none">
    <circle cx="240" cy="104" r="86"/>
    <path d="M240 8 V26 M240 182 V200 M144 104 H126 M336 104 H354"/>
  </g>
  <rect x="8" y="8" width="464" height="204" rx="4" fill="none" stroke="#6b7280" stroke-width="1.5" stroke-opacity="0.65"/><text x="240" y="21" text-anchor="middle" font-family="'Space Mono',monospace" font-size="8.5" fill="#6b7280" fill-opacity="0.85" letter-spacing="3">LINE: CRYPTOMIX</text>
  <g filter="url(#f-clop)"><use href="#sig-clop"/></g>
  
  
  <circle cx="378" cy="36" r="3.5" fill="#2ecc71">
    <animate attributeName="opacity" values="1;0.15;1" dur="2s" repeatCount="indefinite"/>
  </circle>
  <text x="444" y="40" text-anchor="end" font-family="'Space Mono',monospace" font-size="10" fill="#2ecc71" fill-opacity="0.85" letter-spacing="2">ACTIVE</text>
  <text x="36" y="203" font-family="'Space Mono',monospace" font-size="10" fill="#00897b" fill-opacity="0.75" letter-spacing="2">CL0P</text>
  <text x="444" y="203" text-anchor="end" font-family="'Space Mono',monospace" font-size="10" fill="#00897b" fill-opacity="0.45" letter-spacing="2">SIG-09</text>
  <text x="346" y="200" text-anchor="end" font-family="'Space Mono',monospace" font-size="8.5" fill="#00897b" fill-opacity="0.55" letter-spacing="2">GEN 2</text><path d="M356 196 L361 191 L366 196 L361 201 Z" fill="#00897b" fill-opacity="0.30"/><path d="M370 196 L375 191 L380 196 L375 201 Z" fill="#00897b" fill-opacity="1"/>
</svg>