<svg viewBox="0 0 480 220" xmlns="http://www.w3.org/2000/svg" role="img" aria-label="CONTI emblem">
  <defs>
    <radialGradient id="g-conti" cx="50%" cy="46%" r="62%">
      <stop offset="0%" stop-color="#9b59b6" stop-opacity="0.22"/><stop offset="100%" stop-color="#9b59b6" stop-opacity="0"/>
    </radialGradient>
    <filter id="f-conti" x="-40%" y="-40%" width="180%" height="180%">
      <feGaussianBlur stdDeviation="4" result="b"/><feMerge><feMergeNode in="b"/><feMergeNode in="SourceGraphic"/></feMerge>
    </filter>
    <g id="sig-conti">
    <path d="M202 54 L278 54 L278 112 Q278 146 240 160 Q202 146 202 112 Z" fill="#9b59b6" fill-opacity="0.08" stroke="#9b59b6" stroke-width="5" stroke-linejoin="miter"/>
    <path d="M220 88 L240 74 L260 88" fill="none" stroke="#c8a4d7" stroke-width="4.5" stroke-linejoin="miter" stroke-linecap="round"/>
    <path d="M220 110 L240 96 L260 110" fill="none" stroke="#9b59b6" stroke-width="4.5" stroke-linejoin="miter" stroke-linecap="round"/>
    <path d="M220 132 L240 118 L260 132" fill="none" stroke="#9b59b6" stroke-width="4.5" stroke-linejoin="miter" stroke-linecap="round" stroke-opacity="0.65"/>
    <path d="M236 77 L240 74 L244 77" fill="none" stroke="#f2e9f6" stroke-width="2.5" stroke-linecap="round" stroke-opacity="0.9"/>
    </g>
  </defs>
  <rect width="480" height="220" fill="#141418"/>
  <rect width="480" height="220" fill="url(#g-conti)"/>
  <g stroke="#9b59b6" stroke-opacity="0.07" stroke-width="1"><path d="M0 55H480M0 110H480M0 165H480M96 0V220M192 0V220M288 0V220M384 0V220"/></g>
  <use href="#sig-conti" transform="translate(316 138) scale(2.6) translate(-240 -104)" opacity="0.055"/>
  <g stroke="#9b59b6" stroke-opacity="0.55" stroke-width="2" fill="none"><path d="M14 30V14H30M450 14H466V30M466 190V206H450M30 206H14V190"/></g>
  <g stroke="#9b59b6" stroke-opacity="0.30" stroke-width="1.2" fill="none">
    <circle cx="240" cy="104" r="86"/>
    <path d="M240 8 V26 M240 182 V200 M144 104 H126 M336 104 H354"/>
  </g>
  <rect x="8" y="8" width="464" height="204" rx="4" fill="none" stroke="#94a3b8" stroke-width="1.5" stroke-opacity="0.65"/><text x="240" y="21" text-anchor="middle" font-family="'Space Mono',monospace" font-size="8.5" fill="#94a3b8" fill-opacity="0.85" letter-spacing="3">LINE: RYUK</text>
  <g filter="url(#f-conti)" opacity="0.55"><use href="#sig-conti"/></g>
  <g stroke="#94a3b8" stroke-opacity="0.9"><path d="M436 28 L424 62" stroke-width="2.5" stroke-linecap="round"/><path d="M436 28 Q424 22 412 30 Q422 34 428 34 Q433 33 436 28 Z" fill="#94a3b8" fill-opacity="0.25" stroke-width="2.2" stroke-linejoin="round"/></g><text x="426" y="76" text-anchor="middle" font-family="'Space Mono',monospace" font-size="7.5" fill="#94a3b8" fill-opacity="0.75" letter-spacing="2">RYUK</text>
  
  <g transform="rotate(-6 122 70)" opacity="0.9">
    <rect x="58" y="54" width="128" height="30" rx="2" fill="none" stroke="#8a8a94" stroke-width="2"/>
    <text x="122" y="74" text-anchor="middle" font-family="'Space Mono',monospace" font-weight="700" font-size="11.5" fill="#9a9aa4" letter-spacing="2">DEFUNCT 2022</text>
  </g>
  <text x="36" y="203" font-family="'Space Mono',monospace" font-size="10" fill="#9b59b6" fill-opacity="0.75" letter-spacing="2">CONTI</text>
  <text x="444" y="203" text-anchor="end" font-family="'Space Mono',monospace" font-size="10" fill="#9b59b6" fill-opacity="0.45" letter-spacing="2">SIG-02</text>
  <text x="332" y="200" text-anchor="end" font-family="'Space Mono',monospace" font-size="8.5" fill="#9b59b6" fill-opacity="0.55" letter-spacing="2">GEN 3</text><path d="M342 196 L347 191 L352 196 L347 201 Z" fill="#9b59b6" fill-opacity="0.30"/><path d="M356 196 L361 191 L366 196 L361 201 Z" fill="#9b59b6" fill-opacity="0.30"/><path d="M370 196 L375 191 L380 196 L375 201 Z" fill="#9b59b6" fill-opacity="1"/>
</svg>