<svg viewBox="0 0 480 220" xmlns="http://www.w3.org/2000/svg" role="img" aria-label="DARKSIDE emblem">
  <defs>
    <radialGradient id="g-darkside" cx="50%" cy="46%" r="62%">
      <stop offset="0%" stop-color="#5b6b86" stop-opacity="0.22"/><stop offset="100%" stop-color="#5b6b86" stop-opacity="0"/>
    </radialGradient>
    <filter id="f-darkside" x="-40%" y="-40%" width="180%" height="180%">
      <feGaussianBlur stdDeviation="4" result="b"/><feMerge><feMergeNode in="b"/><feMergeNode in="SourceGraphic"/></feMerge>
    </filter>
    <g id="sig-darkside">
    <path d="M292 102 L304 102 M277 65 L285 57 M240 50 L240 38 M203 65 L195 57 M188 102 L176 102 M203 139 L195 147 M240 154 L240 166 M277 139 L285 147" stroke="#b8c1d5" stroke-width="3" stroke-linecap="round"/>
    <circle cx="240" cy="102" r="44" fill="none" stroke="#7d8fb3" stroke-width="2" stroke-opacity="0.5"/>
    <circle cx="240" cy="102" r="34" fill="#141418" stroke="#7d8fb3" stroke-width="4.5"/>
    <path d="M212 88 A34 34 0 0 1 258 76" fill="none" stroke="#eef0f5" stroke-width="3" stroke-opacity="0.95" stroke-linecap="round"/>
    </g>
  </defs>
  <rect width="480" height="220" fill="#141418"/>
  <rect width="480" height="220" fill="url(#g-darkside)"/>
  <g stroke="#5b6b86" stroke-opacity="0.07" stroke-width="1"><path d="M0 55H480M0 110H480M0 165H480M96 0V220M192 0V220M288 0V220M384 0V220"/></g>
  <use href="#sig-darkside" transform="translate(316 138) scale(2.6) translate(-240 -104)" opacity="0.055"/>
  <g stroke="#5b6b86" stroke-opacity="0.55" stroke-width="2" fill="none"><path d="M14 30V14H30M450 14H466V30M466 190V206H450M30 206H14V190"/></g>
  <g stroke="#5b6b86" stroke-opacity="0.30" stroke-width="1.2" fill="none">
    <circle cx="240" cy="104" r="86"/>
    <path d="M240 8 V26 M240 182 V200 M144 104 H126 M336 104 H354"/>
  </g>
  
  <g filter="url(#f-darkside)" opacity="0.55"><use href="#sig-darkside"/></g>
  
  
  <g transform="rotate(-6 122 70)" opacity="0.9">
    <rect x="58" y="54" width="128" height="30" rx="2" fill="none" stroke="#8a8a94" stroke-width="2"/>
    <text x="122" y="74" text-anchor="middle" font-family="'Space Mono',monospace" font-weight="700" font-size="11.5" fill="#9a9aa4" letter-spacing="2">DEFUNCT 2021</text>
  </g>
  <text x="36" y="203" font-family="'Space Mono',monospace" font-size="10" fill="#5b6b86" fill-opacity="0.75" letter-spacing="2">DARKSIDE</text>
  <text x="444" y="203" text-anchor="end" font-family="'Space Mono',monospace" font-size="10" fill="#5b6b86" fill-opacity="0.45" letter-spacing="2">SIG-19</text>
  
</svg>