<svg viewBox="0 0 480 220" xmlns="http://www.w3.org/2000/svg" role="img" aria-label="DRAGONFORCE emblem">
  <defs>
    <radialGradient id="g-dragonforce" cx="50%" cy="46%" r="62%">
      <stop offset="0%" stop-color="#e67e22" stop-opacity="0.22"/><stop offset="100%" stop-color="#e67e22" stop-opacity="0"/>
    </radialGradient>
    <filter id="f-dragonforce" x="-40%" y="-40%" width="180%" height="180%">
      <feGaussianBlur stdDeviation="4" result="b"/><feMerge><feMergeNode in="b"/><feMergeNode in="SourceGraphic"/></feMerge>
    </filter>
    <g id="sig-dragonforce">
    <path d="M202 76 L226 68 L248 74" fill="none" stroke="#e67e22" stroke-width="5" stroke-linejoin="miter" stroke-linecap="round"/>
    <path d="M210 74 L192 46 M228 69 L216 38" stroke="#f1b885" stroke-width="4" stroke-linecap="round"/>
    <path d="M248 74 L304 92 L264 100" fill="none" stroke="#e67e22" stroke-width="5" stroke-linejoin="miter" stroke-linecap="round"/>
    <path d="M258 116 L298 106 M266 114 L264 104" fill="none" stroke="#e67e22" stroke-width="4.5" stroke-linecap="round"/>
    <path d="M202 76 L200 102 L216 114 L244 118" fill="none" stroke="#e67e22" stroke-width="5" stroke-linejoin="miter" stroke-linecap="round"/>
    <path d="M234 84 L254 82 L247 92 Z" fill="#e67e22"/>
    <path d="M239 85 L250 84 L246 89 Z" fill="#fceee2" fill-opacity="0.95"/>
    <path d="M206 118 L220 132 L202 134 M226 136 L238 148 L220 150" fill="none" stroke="#e67e22" stroke-width="3.5" stroke-linejoin="miter" stroke-linecap="round" stroke-opacity="0.85"/>
    <path d="M308 90 L324 86 M306 98 L324 102" stroke="#f1b885" stroke-width="2.5" stroke-linecap="round" stroke-opacity="0.9"/>
    </g>
  </defs>
  <rect width="480" height="220" fill="#141418"/>
  <rect width="480" height="220" fill="url(#g-dragonforce)"/>
  <g stroke="#e67e22" stroke-opacity="0.07" stroke-width="1"><path d="M0 55H480M0 110H480M0 165H480M96 0V220M192 0V220M288 0V220M384 0V220"/></g>
  <use href="#sig-dragonforce" transform="translate(316 138) scale(2.6) translate(-240 -104)" opacity="0.055"/>
  <g stroke="#e67e22" stroke-opacity="0.55" stroke-width="2" fill="none"><path d="M14 30V14H30M450 14H466V30M466 190V206H450M30 206H14V190"/></g>
  <g stroke="#e67e22" stroke-opacity="0.30" stroke-width="1.2" fill="none">
    <circle cx="240" cy="104" r="86"/>
    <path d="M240 8 V26 M240 182 V200 M144 104 H126 M336 104 H354"/>
  </g>
  
  <g filter="url(#f-dragonforce)"><use href="#sig-dragonforce"/></g>
  
  
  <circle cx="378" cy="36" r="3.5" fill="#2ecc71">
    <animate attributeName="opacity" values="1;0.15;1" dur="2s" repeatCount="indefinite"/>
  </circle>
  <text x="444" y="40" text-anchor="end" font-family="'Space Mono',monospace" font-size="10" fill="#2ecc71" fill-opacity="0.85" letter-spacing="2">ACTIVE</text>
  <text x="36" y="203" font-family="'Space Mono',monospace" font-size="10" fill="#e67e22" fill-opacity="0.75" letter-spacing="2">DRAGONFORCE</text>
  <text x="444" y="203" text-anchor="end" font-family="'Space Mono',monospace" font-size="10" fill="#e67e22" fill-opacity="0.45" letter-spacing="2">SIG-03</text>
  
</svg>