<svg viewBox="0 0 480 220" xmlns="http://www.w3.org/2000/svg" role="img" aria-label="LOCKBIT emblem">
  <defs>
    <radialGradient id="g-lockbit" cx="50%" cy="46%" r="62%">
      <stop offset="0%" stop-color="#2ecc71" stop-opacity="0.22"/><stop offset="100%" stop-color="#2ecc71" stop-opacity="0"/>
    </radialGradient>
    <filter id="f-lockbit" x="-40%" y="-40%" width="180%" height="180%">
      <feGaussianBlur stdDeviation="4" result="b"/><feMerge><feMergeNode in="b"/><feMergeNode in="SourceGraphic"/></feMerge>
    </filter>
    <g id="sig-lockbit">
    <path d="M240 26 L312 68 V152 L240 194 L168 152 V68 Z" fill="#2ecc71" fill-opacity="0.05" stroke="#2ecc71" stroke-width="3.5" stroke-opacity="0.85"/>
    <path d="M217 98 V76 A23 23 0 0 1 263 76 V98" fill="none" stroke="#8ce3b1" stroke-width="6"/>
    <rect x="204" y="98" width="72" height="56" rx="6" fill="#2ecc71" fill-opacity="0.07" stroke="#2ecc71" stroke-width="6"/>
    <circle cx="240" cy="119" r="7.5" fill="#2ecc71"/>
    <rect x="236.5" y="124" width="7" height="15" rx="2" fill="#2ecc71"/>
    <circle cx="240" cy="119" r="3.5" fill="#e4f8ed" fill-opacity="0.95"/>
    <path d="M204 126 H182 M298 126 H276 M240 154 V176" stroke="#2ecc71" stroke-width="3" stroke-opacity="0.9"/>
    <rect x="172" y="121" width="9" height="9" fill="#2ecc71"/>
    <rect x="299" y="121" width="9" height="9" fill="#2ecc71"/>
    <rect x="235.5" y="177" width="9" height="9" fill="#2ecc71"/>
    </g>
  </defs>
  <rect width="480" height="220" fill="#141418"/>
  <rect width="480" height="220" fill="url(#g-lockbit)"/>
  <g stroke="#2ecc71" stroke-opacity="0.07" stroke-width="1"><path d="M0 55H480M0 110H480M0 165H480M96 0V220M192 0V220M288 0V220M384 0V220"/></g>
  <use href="#sig-lockbit" transform="translate(316 138) scale(2.6) translate(-240 -104)" opacity="0.055"/>
  <g stroke="#2ecc71" stroke-opacity="0.55" stroke-width="2" fill="none"><path d="M14 30V14H30M450 14H466V30M466 190V206H450M30 206H14V190"/></g>
  <g stroke="#2ecc71" stroke-opacity="0.30" stroke-width="1.2" fill="none">
    <circle cx="240" cy="104" r="86"/>
    <path d="M240 8 V26 M240 182 V200 M144 104 H126 M336 104 H354"/>
  </g>
  
  <g filter="url(#f-lockbit)"><use href="#sig-lockbit"/></g>
  
  
  <circle cx="378" cy="36" r="3.5" fill="#2ecc71">
    <animate attributeName="opacity" values="1;0.15;1" dur="2s" repeatCount="indefinite"/>
  </circle>
  <text x="444" y="40" text-anchor="end" font-family="'Space Mono',monospace" font-size="10" fill="#2ecc71" fill-opacity="0.85" letter-spacing="2">ACTIVE</text>
  <text x="36" y="203" font-family="'Space Mono',monospace" font-size="10" fill="#2ecc71" fill-opacity="0.75" letter-spacing="2">LOCKBIT</text>
  <text x="444" y="203" text-anchor="end" font-family="'Space Mono',monospace" font-size="10" fill="#2ecc71" fill-opacity="0.45" letter-spacing="2">SIG-04</text>
  
</svg>