<svg viewBox="0 0 480 220" xmlns="http://www.w3.org/2000/svg" role="img" aria-label="LYNX emblem">
  <defs>
    <radialGradient id="g-lynx" cx="50%" cy="46%" r="62%">
      <stop offset="0%" stop-color="#3498db" stop-opacity="0.22"/><stop offset="100%" stop-color="#3498db" stop-opacity="0"/>
    </radialGradient>
    <filter id="f-lynx" x="-40%" y="-40%" width="180%" height="180%">
      <feGaussianBlur stdDeviation="4" result="b"/><feMerge><feMergeNode in="b"/><feMergeNode in="SourceGraphic"/></feMerge>
    </filter>
    <g id="sig-lynx">
    <path d="M192 68 L210 86 Q240 78 270 86 L288 68 L294 112 Q294 142 267 154 Q240 164 213 154 Q186 142 186 112 Z" fill="#3498db" fill-opacity="0.07" stroke="#3498db" stroke-width="5" stroke-linejoin="miter"/>
    <path d="M192 68 L184 48 M288 68 L296 48" stroke="#8fc6eb" stroke-width="3.5" stroke-linecap="round"/>
    <path d="M188 118 L174 124 M190 130 L176 138 M292 118 L306 124 M290 130 L304 138" stroke="#3498db" stroke-width="3" stroke-linecap="round" stroke-opacity="0.85"/>
    <path d="M216 104 L226 98 L236 104 L226 110 Z" fill="#3498db"/>
    <path d="M244 104 L254 98 L264 104 L254 110 Z" fill="#3498db"/>
    <path d="M222 104 L226 101 L230 104 L226 107 Z" fill="#e5f2fa" fill-opacity="0.95"/>
    <path d="M250 104 L254 101 L258 104 L254 107 Z" fill="#e5f2fa" fill-opacity="0.95"/>
    <path d="M236 128 L240 134 L244 128" fill="none" stroke="#8fc6eb" stroke-width="3" stroke-linecap="round"/>
    </g>
  </defs>
  <rect width="480" height="220" fill="#141418"/>
  <rect width="480" height="220" fill="url(#g-lynx)"/>
  <g stroke="#3498db" stroke-opacity="0.07" stroke-width="1"><path d="M0 55H480M0 110H480M0 165H480M96 0V220M192 0V220M288 0V220M384 0V220"/></g>
  <use href="#sig-lynx" transform="translate(316 138) scale(2.6) translate(-240 -104)" opacity="0.055"/>
  <g stroke="#3498db" stroke-opacity="0.55" stroke-width="2" fill="none"><path d="M14 30V14H30M450 14H466V30M466 190V206H450M30 206H14V190"/></g>
  <g stroke="#3498db" stroke-opacity="0.30" stroke-width="1.2" fill="none">
    <circle cx="240" cy="104" r="86"/>
    <path d="M240 8 V26 M240 182 V200 M144 104 H126 M336 104 H354"/>
  </g>
  
  <g filter="url(#f-lynx)"><use href="#sig-lynx"/></g>
  
  
  <circle cx="378" cy="36" r="3.5" fill="#2ecc71">
    <animate attributeName="opacity" values="1;0.15;1" dur="2s" repeatCount="indefinite"/>
  </circle>
  <text x="444" y="40" text-anchor="end" font-family="'Space Mono',monospace" font-size="10" fill="#2ecc71" fill-opacity="0.85" letter-spacing="2">ACTIVE</text>
  <text x="36" y="203" font-family="'Space Mono',monospace" font-size="10" fill="#3498db" fill-opacity="0.75" letter-spacing="2">LYNX</text>
  <text x="444" y="203" text-anchor="end" font-family="'Space Mono',monospace" font-size="10" fill="#3498db" fill-opacity="0.45" letter-spacing="2">SIG-05</text>
  
</svg>