<svg viewBox="0 0 480 220" xmlns="http://www.w3.org/2000/svg" role="img" aria-label="MEDUSA emblem">
  <defs>
    <radialGradient id="g-medusa" cx="50%" cy="46%" r="62%">
      <stop offset="0%" stop-color="#16a085" stop-opacity="0.22"/><stop offset="100%" stop-color="#16a085" stop-opacity="0"/>
    </radialGradient>
    <filter id="f-medusa" x="-40%" y="-40%" width="180%" height="180%">
      <feGaussianBlur stdDeviation="4" result="b"/><feMerge><feMergeNode in="b"/><feMergeNode in="SourceGraphic"/></feMerge>
    </filter>
    <g id="sig-medusa">
      <circle cx="240" cy="106" r="30" fill="#16a085" fill-opacity="0.10" stroke="none"/>
      <path d="M240 78 a28 30 0 0 0 -28 30 a28 30 0 0 0 28 30 a28 30 0 0 0 28 -30 a28 30 0 0 0 -28 -30 Z" fill="none" stroke="#16a085" stroke-width="4.5"/>
      <path d="M228 100 q6 -5 12 0" fill="none" stroke="#5fe3c8" stroke-width="3.2" stroke-linecap="round"/>
      <path d="M252 100 q-6 -5 -12 0" fill="none" stroke="#5fe3c8" stroke-width="3.2" stroke-linecap="round" transform="translate(24 0)"/>
      <circle cx="231" cy="104" r="3" fill="#5fe3c8"/>
      <circle cx="249" cy="104" r="3" fill="#5fe3c8"/>
      <path d="M231 120 q9 7 18 0" fill="none" stroke="#16a085" stroke-width="3" stroke-linecap="round"/>
      <path d="M216 84 q-16 -12 -26 -4 q-9 7 -1 15" fill="none" stroke="#16a085" stroke-width="4" stroke-linecap="round"/>
      <path d="M264 84 q16 -12 26 -4 q9 7 1 15" fill="none" stroke="#16a085" stroke-width="4" stroke-linecap="round"/>
      <path d="M226 76 q-8 -20 -24 -22 q-13 -2 -13 10" fill="none" stroke="#5fe3c8" stroke-width="3.6" stroke-linecap="round" stroke-opacity="0.9"/>
      <path d="M254 76 q8 -20 24 -22 q13 -2 13 10" fill="none" stroke="#5fe3c8" stroke-width="3.6" stroke-linecap="round" stroke-opacity="0.9"/>
      <path d="M240 76 q0 -24 -14 -32" fill="none" stroke="#16a085" stroke-width="3.6" stroke-linecap="round"/>
      <path d="M240 76 q0 -26 16 -30" fill="none" stroke="#16a085" stroke-width="3.6" stroke-linecap="round"/>
      <path d="M212 118 q-20 6 -26 22" fill="none" stroke="#16a085" stroke-width="3.4" stroke-linecap="round" stroke-opacity="0.75"/>
      <path d="M268 118 q20 6 26 22" fill="none" stroke="#16a085" stroke-width="3.4" stroke-linecap="round" stroke-opacity="0.75"/>
      <circle cx="189" cy="90" r="2.6" fill="#5fe3c8"/>
      <circle cx="291" cy="90" r="2.6" fill="#5fe3c8"/>
      <circle cx="189" cy="54" r="2.4" fill="#5fe3c8" fill-opacity="0.85"/>
      <circle cx="291" cy="54" r="2.4" fill="#5fe3c8" fill-opacity="0.85"/>
      <path d="M240 140 V168 M222 168 H258" fill="none" stroke="#16a085" stroke-width="3.6" stroke-linecap="round" stroke-opacity="0.8"/>
    </g>
  </defs>
  <rect width="480" height="220" fill="#141418"/>
  <rect width="480" height="220" fill="url(#g-medusa)"/>
  <g stroke="#16a085" stroke-opacity="0.07" stroke-width="1"><path d="M0 55H480M0 110H480M0 165H480M96 0V220M192 0V220M288 0V220M384 0V220"/></g>
  <use href="#sig-medusa" transform="translate(316 138) scale(2.6) translate(-240 -104)" opacity="0.05"/>
  <g stroke="#16a085" stroke-opacity="0.55" stroke-width="2" fill="none"><path d="M14 30V14H30M450 14H466V30M466 190V206H450M30 206H14V190"/></g>
  <g stroke="#16a085" stroke-opacity="0.30" stroke-width="1.2" fill="none">
    <circle cx="240" cy="104" r="86"/>
    <path d="M240 8 V26 M240 182 V200 M144 104 H126 M336 104 H354"/>
  </g>

  <g filter="url(#f-medusa)"><use href="#sig-medusa"/></g>

  <circle cx="378" cy="36" r="3.5" fill="#9ba1ab"/>
  <text x="444" y="40" text-anchor="end" font-family="'Space Mono',monospace" font-size="10" fill="#9ba1ab" fill-opacity="0.85" letter-spacing="2">DORMANT</text>
  <text x="36" y="203" font-family="'Space Mono',monospace" font-size="10" fill="#16a085" fill-opacity="0.75" letter-spacing="2">MEDUSA</text>
  <text x="444" y="203" text-anchor="end" font-family="'Space Mono',monospace" font-size="10" fill="#16a085" fill-opacity="0.45" letter-spacing="2">SIG-25</text>
</svg>
