<svg viewBox="0 0 480 220" xmlns="http://www.w3.org/2000/svg" role="img" aria-label="NIGHTSPIRE emblem">
  <defs>
    <radialGradient id="g-nightspire" cx="50%" cy="46%" r="62%">
      <stop offset="0%" stop-color="#0ea5e9" stop-opacity="0.22"/><stop offset="100%" stop-color="#0ea5e9" stop-opacity="0"/>
    </radialGradient>
    <filter id="f-nightspire" x="-40%" y="-40%" width="180%" height="180%">
      <feGaussianBlur stdDeviation="4" result="b"/><feMerge><feMergeNode in="b"/><feMergeNode in="SourceGraphic"/></feMerge>
    </filter>
    <g id="sig-nightspire">
    <path d="M240 44 L256 152 H224 Z" fill="#0ea5e9" fill-opacity="0.09" stroke="#0ea5e9" stroke-width="4.5" stroke-linejoin="miter"/>
    <path d="M240 44 V28" stroke="#7acef3" stroke-width="3" stroke-linecap="round"/>
    <path d="M238 84 h4 M236 108 h8 M234 132 h12" stroke="#e0f3fc" stroke-width="2.5" stroke-opacity="0.95"/>
    <path d="M190 56 a24 24 0 1 0 26 34 a19 19 0 1 1 -26 -34 Z" fill="#7acef3" fill-opacity="0.9"/>
    <circle cx="300" cy="60" r="1.8" fill="#e0f3fc" fill-opacity="0.9"/>
    <circle cx="312" cy="84" r="1.5" fill="#e0f3fc" fill-opacity="0.8"/>
    <circle cx="290" cy="100" r="1.5" fill="#e0f3fc" fill-opacity="0.8"/>
    </g>
  </defs>
  <rect width="480" height="220" fill="#141418"/>
  <rect width="480" height="220" fill="url(#g-nightspire)"/>
  <g stroke="#0ea5e9" stroke-opacity="0.07" stroke-width="1"><path d="M0 55H480M0 110H480M0 165H480M96 0V220M192 0V220M288 0V220M384 0V220"/></g>
  <use href="#sig-nightspire" transform="translate(316 138) scale(2.6) translate(-240 -104)" opacity="0.055"/>
  <g stroke="#0ea5e9" stroke-opacity="0.55" stroke-width="2" fill="none"><path d="M14 30V14H30M450 14H466V30M466 190V206H450M30 206H14V190"/></g>
  <g stroke="#0ea5e9" stroke-opacity="0.30" stroke-width="1.2" fill="none">
    <circle cx="240" cy="104" r="86"/>
    <path d="M240 8 V26 M240 182 V200 M144 104 H126 M336 104 H354"/>
  </g>
  
  <g filter="url(#f-nightspire)"><use href="#sig-nightspire"/></g>
  
  
  <circle cx="378" cy="36" r="3.5" fill="#2ecc71">
    <animate attributeName="opacity" values="1;0.15;1" dur="2s" repeatCount="indefinite"/>
  </circle>
  <text x="444" y="40" text-anchor="end" font-family="'Space Mono',monospace" font-size="10" fill="#2ecc71" fill-opacity="0.85" letter-spacing="2">ACTIVE</text>
  <text x="36" y="203" font-family="'Space Mono',monospace" font-size="10" fill="#0ea5e9" fill-opacity="0.75" letter-spacing="2">NIGHTSPIRE</text>
  <text x="444" y="203" text-anchor="end" font-family="'Space Mono',monospace" font-size="10" fill="#0ea5e9" fill-opacity="0.45" letter-spacing="2">SIG-12</text>
  
</svg>