<svg viewBox="0 0 480 220" xmlns="http://www.w3.org/2000/svg" role="img" aria-label="QILIN emblem">
  <defs>
    <radialGradient id="g-qilin" cx="50%" cy="46%" r="62%">
      <stop offset="0%" stop-color="#f1c40f" stop-opacity="0.22"/><stop offset="100%" stop-color="#f1c40f" stop-opacity="0"/>
    </radialGradient>
    <filter id="f-qilin" x="-40%" y="-40%" width="180%" height="180%">
      <feGaussianBlur stdDeviation="4" result="b"/><feMerge><feMergeNode in="b"/><feMergeNode in="SourceGraphic"/></feMerge>
    </filter>
    <g id="sig-qilin">
    <path d="M244 66 L206 80 L186 100 L188 112 L208 118 L221 131 L232 150 L236 172 L263 172 L261 112 L252 78 Z" fill="#f1c40f" fill-opacity="0.09" stroke="none"/>
    <path d="M244 66 L268 30" fill="none" stroke="#f7df7b" stroke-width="5.5" stroke-linecap="round"/>
    <path d="M244 66 L206 80 L186 100 L188 112 L208 118 L221 131 L232 150 L236 172" fill="none" stroke="#f1c40f" stroke-width="5.5" stroke-linecap="round" stroke-linejoin="miter"/>
    <path d="M252 78 L261 112 L263 172" fill="none" stroke="#f1c40f" stroke-width="5.5" stroke-linecap="round"/>
    <path d="M230 178 H268" stroke="#f1c40f" stroke-width="4" stroke-linecap="round" stroke-opacity="0.8"/>
    <path d="M212 94 L230 88 L224 102 Z" fill="#f7df7b"/>
    <path d="M216 94 L226 91 L223 98 Z" fill="#fdf7e0" fill-opacity="0.95"/>
    <circle cx="195" cy="105" r="2.4" fill="#f1c40f"/>
    <path d="M190 111 L202 113" stroke="#f1c40f" stroke-width="2.5" stroke-linecap="round" stroke-opacity="0.85"/>
    <path d="M255 86 L277 95 L275 118" fill="none" stroke="#f7df7b" stroke-width="4.5" stroke-linecap="round" stroke-linejoin="miter" stroke-opacity="0.95"/>
    <path d="M261 114 L281 125 L278 146" fill="none" stroke="#f1c40f" stroke-width="4" stroke-linecap="round" stroke-linejoin="miter" stroke-opacity="0.7"/>
    </g>
  </defs>
  <rect width="480" height="220" fill="#141418"/>
  <rect width="480" height="220" fill="url(#g-qilin)"/>
  <g stroke="#f1c40f" stroke-opacity="0.07" stroke-width="1"><path d="M0 55H480M0 110H480M0 165H480M96 0V220M192 0V220M288 0V220M384 0V220"/></g>
  <use href="#sig-qilin" transform="translate(316 138) scale(2.6) translate(-240 -104)" opacity="0.055"/>
  <g stroke="#f1c40f" stroke-opacity="0.55" stroke-width="2" fill="none"><path d="M14 30V14H30M450 14H466V30M466 190V206H450M30 206H14V190"/></g>
  <g stroke="#f1c40f" stroke-opacity="0.30" stroke-width="1.2" fill="none">
    <circle cx="236" cy="104" r="86"/>
    <path d="M236 8 V26 M236 182 V200 M140 104 H122 M332 104 H350"/>
  </g>
  
  <g filter="url(#f-qilin)"><use href="#sig-qilin"/></g>
  
  
  <circle cx="378" cy="36" r="3.5" fill="#2ecc71">
    <animate attributeName="opacity" values="1;0.15;1" dur="2s" repeatCount="indefinite"/>
  </circle>
  <text x="444" y="40" text-anchor="end" font-family="'Space Mono',monospace" font-size="10" fill="#2ecc71" fill-opacity="0.85" letter-spacing="2">ACTIVE</text>
  <text x="36" y="203" font-family="'Space Mono',monospace" font-size="10" fill="#f1c40f" fill-opacity="0.75" letter-spacing="2">QILIN</text>
  <text x="444" y="203" text-anchor="end" font-family="'Space Mono',monospace" font-size="10" fill="#f1c40f" fill-opacity="0.45" letter-spacing="2">SIG-06</text>
  
</svg>