<svg viewBox="0 0 480 220" xmlns="http://www.w3.org/2000/svg" role="img" aria-label="REVIL emblem">
  <defs>
    <radialGradient id="g-revil" cx="50%" cy="46%" r="62%">
      <stop offset="0%" stop-color="#b03a2e" stop-opacity="0.22"/><stop offset="100%" stop-color="#b03a2e" stop-opacity="0"/>
    </radialGradient>
    <filter id="f-revil" x="-40%" y="-40%" width="180%" height="180%">
      <feGaussianBlur stdDeviation="4" result="b"/><feMerge><feMergeNode in="b"/><feMergeNode in="SourceGraphic"/></feMerge>
    </filter>
    <g id="sig-revil">
    <path d="M240 54 L268 78 L254 104 L226 104 L212 78 Z" fill="#b03a2e" fill-opacity="0.07" stroke="#b03a2e" stroke-width="5" stroke-linejoin="miter"/>
    <path d="M222 80 L234 76 L231 87 Z" fill="#b03a2e"/>
    <path d="M258 80 L246 76 L249 87 Z" fill="#b03a2e"/>
    <path d="M226 80 L232 78 L230 84 Z" fill="#f5e5e4" fill-opacity="0.95"/>
    <path d="M254 80 L248 78 L250 84 Z" fill="#f5e5e4" fill-opacity="0.95"/>
    <path d="M240 54 V40 M240 40 L233 32 M240 40 L247 32" stroke="#d4938c" stroke-width="2.5" stroke-linecap="round"/>
    <path d="M234 104 L232 114 M246 104 L248 114" stroke="#b03a2e" stroke-width="2.5" stroke-linecap="round" stroke-opacity="0.85"/>
    <path d="M240 104 Q216 122 240 138 Q264 154 240 168" fill="none" stroke="#b03a2e" stroke-width="5" stroke-linecap="round"/>
    <path d="M240 168 L226 172 L238 178" fill="none" stroke="#b03a2e" stroke-width="3.5" stroke-linecap="round" stroke-linejoin="miter"/>
    </g>
  </defs>
  <rect width="480" height="220" fill="#141418"/>
  <rect width="480" height="220" fill="url(#g-revil)"/>
  <g stroke="#b03a2e" stroke-opacity="0.07" stroke-width="1"><path d="M0 55H480M0 110H480M0 165H480M96 0V220M192 0V220M288 0V220M384 0V220"/></g>
  <use href="#sig-revil" transform="translate(316 138) scale(2.6) translate(-240 -104)" opacity="0.055"/>
  <g stroke="#b03a2e" stroke-opacity="0.55" stroke-width="2" fill="none"><path d="M14 30V14H30M450 14H466V30M466 190V206H450M30 206H14V190"/></g>
  <g stroke="#b03a2e" stroke-opacity="0.30" stroke-width="1.2" fill="none">
    <circle cx="240" cy="104" r="86"/>
    <path d="M240 8 V26 M240 182 V200 M144 104 H126 M336 104 H354"/>
  </g>
  <rect x="8" y="8" width="464" height="204" rx="4" fill="none" stroke="#6b7280" stroke-width="1.5" stroke-opacity="0.65"/><text x="240" y="21" text-anchor="middle" font-family="'Space Mono',monospace" font-size="8.5" fill="#6b7280" fill-opacity="0.85" letter-spacing="3">LINE: GANDCRAB</text>
  <g filter="url(#f-revil)"><use href="#sig-revil"/></g>
  
  
  <g transform="rotate(-8 240 152)">
    <rect x="-20" y="134" width="520" height="36" fill="#d92b2b" fill-opacity="0.16"/>
    <path d="M-20 134 H500 M-20 170 H500" stroke="#ff5148" stroke-width="1.5" stroke-opacity="0.9"/>
    <text x="240" y="158" text-anchor="middle" font-family="'Space Mono',monospace" font-weight="700" font-size="15" fill="#ff6b61" letter-spacing="6">SEIZED · JAN 2022</text>
  </g>
  <text x="36" y="203" font-family="'Space Mono',monospace" font-size="10" fill="#b03a2e" fill-opacity="0.75" letter-spacing="2">REVIL</text>
  <text x="444" y="203" text-anchor="end" font-family="'Space Mono',monospace" font-size="10" fill="#b03a2e" fill-opacity="0.45" letter-spacing="2">SIG-20</text>
  <text x="346" y="200" text-anchor="end" font-family="'Space Mono',monospace" font-size="8.5" fill="#b03a2e" fill-opacity="0.55" letter-spacing="2">GEN 2</text><path d="M356 196 L361 191 L366 196 L361 201 Z" fill="#b03a2e" fill-opacity="0.30"/><path d="M370 196 L375 191 L380 196 L375 201 Z" fill="#b03a2e" fill-opacity="1"/>
</svg>