<svg viewBox="0 0 480 220" xmlns="http://www.w3.org/2000/svg" role="img" aria-label="ROYAL emblem">
  <defs>
    <radialGradient id="g-royal" cx="50%" cy="46%" r="62%">
      <stop offset="0%" stop-color="#8e44ad" stop-opacity="0.22"/><stop offset="100%" stop-color="#8e44ad" stop-opacity="0"/>
    </radialGradient>
    <filter id="f-royal" x="-40%" y="-40%" width="180%" height="180%">
      <feGaussianBlur stdDeviation="4" result="b"/><feMerge><feMergeNode in="b"/><feMergeNode in="SourceGraphic"/></feMerge>
    </filter>
    <g id="sig-royal">
    <path d="M202 134 L197 92 L222 110 L240 80 L258 110 L283 92 L278 134 Z" fill="#8e44ad" fill-opacity="0.07" stroke="#8e44ad" stroke-width="5" stroke-linejoin="miter"/>
    <path d="M200 144 H280" stroke="#8e44ad" stroke-width="4" stroke-linecap="round"/>
    <circle cx="197" cy="86" r="3" fill="#f0e7f4"/>
    <circle cx="240" cy="72" r="3" fill="#f0e7f4"/>
    <circle cx="283" cy="86" r="3" fill="#f0e7f4"/>
    <path d="M240 114 L247 122 L240 130 L233 122 Z" fill="none" stroke="#c198d2" stroke-width="3" stroke-linejoin="miter"/>
    </g>
  </defs>
  <rect width="480" height="220" fill="#141418"/>
  <rect width="480" height="220" fill="url(#g-royal)"/>
  <g stroke="#8e44ad" stroke-opacity="0.07" stroke-width="1"><path d="M0 55H480M0 110H480M0 165H480M96 0V220M192 0V220M288 0V220M384 0V220"/></g>
  <use href="#sig-royal" transform="translate(316 138) scale(2.6) translate(-240 -104)" opacity="0.055"/>
  <g stroke="#8e44ad" stroke-opacity="0.55" stroke-width="2" fill="none"><path d="M14 30V14H30M450 14H466V30M466 190V206H450M30 206H14V190"/></g>
  <g stroke="#8e44ad" stroke-opacity="0.30" stroke-width="1.2" fill="none">
    <circle cx="240" cy="104" r="86"/>
    <path d="M240 8 V26 M240 182 V200 M144 104 H126 M336 104 H354"/>
  </g>
  <rect x="8" y="8" width="464" height="204" rx="4" fill="none" stroke="#9b59b6" stroke-width="1.5" stroke-opacity="0.65"/><text x="240" y="21" text-anchor="middle" font-family="'Space Mono',monospace" font-size="8.5" fill="#9b59b6" fill-opacity="0.85" letter-spacing="3">LINE: CONTI</text>
  <g filter="url(#f-royal)" opacity="0.55"><use href="#sig-royal"/></g>
  <g stroke="#9b59b6" stroke-width="2.5" fill="none" stroke-opacity="0.9" stroke-linejoin="miter"><path d="M414 36 L426 26 L438 36 M414 48 L426 38 L438 48 M414 60 L426 50 L438 60"/></g><text x="426" y="76" text-anchor="middle" font-family="'Space Mono',monospace" font-size="7.5" fill="#9b59b6" fill-opacity="0.75" letter-spacing="2">CONTI</text>
  
  <g transform="rotate(-6 122 70)" opacity="0.9">
    <rect x="58" y="54" width="128" height="30" rx="2" fill="none" stroke="#8a8a94" stroke-width="2"/>
    <text x="122" y="74" text-anchor="middle" font-family="'Space Mono',monospace" font-weight="700" font-size="11.5" fill="#9a9aa4" letter-spacing="2">DEFUNCT 2023</text>
  </g>
  <text x="36" y="203" font-family="'Space Mono',monospace" font-size="10" fill="#8e44ad" fill-opacity="0.75" letter-spacing="2">ROYAL</text>
  <text x="444" y="203" text-anchor="end" font-family="'Space Mono',monospace" font-size="10" fill="#8e44ad" fill-opacity="0.45" letter-spacing="2">SIG-07</text>
  <text x="318" y="200" text-anchor="end" font-family="'Space Mono',monospace" font-size="8.5" fill="#8e44ad" fill-opacity="0.55" letter-spacing="2">GEN 4</text><path d="M328 196 L333 191 L338 196 L333 201 Z" fill="#8e44ad" fill-opacity="0.30"/><path d="M342 196 L347 191 L352 196 L347 201 Z" fill="#8e44ad" fill-opacity="0.30"/><path d="M356 196 L361 191 L366 196 L361 201 Z" fill="#8e44ad" fill-opacity="0.30"/><path d="M370 196 L375 191 L380 196 L375 201 Z" fill="#8e44ad" fill-opacity="1"/>
</svg>