<svg viewBox="0 0 480 220" xmlns="http://www.w3.org/2000/svg" role="img" aria-label="RYUK emblem">
  <defs>
    <radialGradient id="g-ryuk" cx="50%" cy="46%" r="62%">
      <stop offset="0%" stop-color="#94a3b8" stop-opacity="0.22"/><stop offset="100%" stop-color="#94a3b8" stop-opacity="0"/>
    </radialGradient>
    <filter id="f-ryuk" x="-40%" y="-40%" width="180%" height="180%">
      <feGaussianBlur stdDeviation="4" result="b"/><feMerge><feMergeNode in="b"/><feMergeNode in="SourceGraphic"/></feMerge>
    </filter>
    <g id="sig-ryuk">
    <path d="M264 40 L222 170" stroke="#94a3b8" stroke-width="5" stroke-linecap="round"/>
    <path d="M264 40 Q226 24 190 46 Q210 56 232 58 Q252 60 264 40 Z" fill="#94a3b8" fill-opacity="0.12" stroke="#94a3b8" stroke-width="4.5" stroke-linejoin="round"/>
    <path d="M254 42 Q226 30 200 44" fill="none" stroke="#f1f3f6" stroke-width="2" stroke-linecap="round" stroke-opacity="0.8"/>
    <path d="M244 102 l10 3 M238 122 l10 3" stroke="#c4ccd8" stroke-width="3" stroke-linecap="round"/>
    </g>
  </defs>
  <rect width="480" height="220" fill="#141418"/>
  <rect width="480" height="220" fill="url(#g-ryuk)"/>
  <g stroke="#94a3b8" stroke-opacity="0.07" stroke-width="1"><path d="M0 55H480M0 110H480M0 165H480M96 0V220M192 0V220M288 0V220M384 0V220"/></g>
  <use href="#sig-ryuk" transform="translate(316 138) scale(2.6) translate(-240 -104)" opacity="0.055"/>
  <g stroke="#94a3b8" stroke-opacity="0.55" stroke-width="2" fill="none"><path d="M14 30V14H30M450 14H466V30M466 190V206H450M30 206H14V190"/></g>
  <g stroke="#94a3b8" stroke-opacity="0.30" stroke-width="1.2" fill="none">
    <circle cx="240" cy="104" r="86"/>
    <path d="M240 8 V26 M240 182 V200 M144 104 H126 M336 104 H354"/>
  </g>
  <rect x="8" y="8" width="464" height="204" rx="4" fill="none" stroke="#6b7280" stroke-width="1.5" stroke-opacity="0.65"/><text x="240" y="21" text-anchor="middle" font-family="'Space Mono',monospace" font-size="8.5" fill="#6b7280" fill-opacity="0.85" letter-spacing="3">LINE: HERMES</text>
  <g filter="url(#f-ryuk)" opacity="0.55"><use href="#sig-ryuk"/></g>
  
  
  <g transform="rotate(-6 122 70)" opacity="0.9">
    <rect x="58" y="54" width="128" height="30" rx="2" fill="none" stroke="#8a8a94" stroke-width="2"/>
    <text x="122" y="74" text-anchor="middle" font-family="'Space Mono',monospace" font-weight="700" font-size="11.5" fill="#9a9aa4" letter-spacing="2">DEFUNCT 2022</text>
  </g>
  <text x="36" y="203" font-family="'Space Mono',monospace" font-size="10" fill="#94a3b8" fill-opacity="0.75" letter-spacing="2">RYUK</text>
  <text x="444" y="203" text-anchor="end" font-family="'Space Mono',monospace" font-size="10" fill="#94a3b8" fill-opacity="0.45" letter-spacing="2">SIG-17</text>
  <text x="346" y="200" text-anchor="end" font-family="'Space Mono',monospace" font-size="8.5" fill="#94a3b8" fill-opacity="0.55" letter-spacing="2">GEN 2</text><path d="M356 196 L361 191 L366 196 L361 201 Z" fill="#94a3b8" fill-opacity="0.30"/><path d="M370 196 L375 191 L380 196 L375 201 Z" fill="#94a3b8" fill-opacity="1"/>
</svg>