<svg viewBox="0 0 480 220" xmlns="http://www.w3.org/2000/svg" role="img" aria-label="SCATTERED SPIDER emblem">
  <defs>
    <radialGradient id="g-scatteredspider" cx="50%" cy="46%" r="62%">
      <stop offset="0%" stop-color="#e67e22" stop-opacity="0.22"/><stop offset="100%" stop-color="#e67e22" stop-opacity="0"/>
    </radialGradient>
    <filter id="f-scatteredspider" x="-40%" y="-40%" width="180%" height="180%">
      <feGaussianBlur stdDeviation="4" result="b"/><feMerge><feMergeNode in="b"/><feMergeNode in="SourceGraphic"/></feMerge>
    </filter>
    <g id="sig-scatteredspider">
    <circle cx="240" cy="92" r="9" fill="none" stroke="#e67e22" stroke-width="4"/>
    <circle cx="240" cy="120" r="16" fill="#e67e22" fill-opacity="0.08" stroke="#e67e22" stroke-width="4.5"/>
    <circle cx="240" cy="78" r="4" fill="#e67e22"/>
    <circle cx="240" cy="77" r="1.8" fill="#fceee2" fill-opacity="0.95"/>
    <path d="M232 88 L204 72 L190 80 M230 98 L198 96 L184 106 M232 112 L202 122 L192 136 M236 132 L216 148 L210 160" fill="none" stroke="#e67e22" stroke-width="3.5" stroke-linecap="round" stroke-linejoin="miter"/>
    <path d="M248 88 L262 80 M270 76 L284 70 M250 98 L266 96 M276 96 L292 100 M248 112 L268 120 M278 126 L288 136 M244 132 L256 146 M262 154 L268 164" fill="none" stroke="#e67e22" stroke-width="3.5" stroke-linecap="round"/>
    <path d="M250 122 h14" stroke="#141418" stroke-width="5"/>
    <path d="M258 116 h24" stroke="#f1b885" stroke-width="5" stroke-opacity="0.6"/>
    <path d="M262 127 h18" stroke="#f1b885" stroke-width="4" stroke-opacity="0.4"/>
    </g>
  </defs>
  <rect width="480" height="220" fill="#141418"/>
  <rect width="480" height="220" fill="url(#g-scatteredspider)"/>
  <g stroke="#e67e22" stroke-opacity="0.07" stroke-width="1"><path d="M0 55H480M0 110H480M0 165H480M96 0V220M192 0V220M288 0V220M384 0V220"/></g>
  <use href="#sig-scatteredspider" transform="translate(316 138) scale(2.6) translate(-240 -104)" opacity="0.055"/>
  <g stroke="#e67e22" stroke-opacity="0.55" stroke-width="2" fill="none"><path d="M14 30V14H30M450 14H466V30M466 190V206H450M30 206H14V190"/></g>
  <g stroke="#e67e22" stroke-opacity="0.30" stroke-width="1.2" fill="none">
    <circle cx="240" cy="104" r="86"/>
    <path d="M240 8 V26 M240 182 V200 M144 104 H126 M336 104 H354"/>
  </g>
  
  <g filter="url(#f-scatteredspider)"><use href="#sig-scatteredspider"/></g>
  
  
  <circle cx="378" cy="36" r="3.5" fill="#2ecc71">
    <animate attributeName="opacity" values="1;0.15;1" dur="2s" repeatCount="indefinite"/>
  </circle>
  <text x="444" y="40" text-anchor="end" font-family="'Space Mono',monospace" font-size="10" fill="#2ecc71" fill-opacity="0.85" letter-spacing="2">ACTIVE</text>
  <text x="36" y="203" font-family="'Space Mono',monospace" font-size="10" fill="#e67e22" fill-opacity="0.75" letter-spacing="2">SCATTERED SPIDER</text>
  <text x="444" y="203" text-anchor="end" font-family="'Space Mono',monospace" font-size="10" fill="#e67e22" fill-opacity="0.45" letter-spacing="2">SIG-16</text>
  
</svg>