<svg viewBox="0 0 480 220" xmlns="http://www.w3.org/2000/svg" role="img" aria-label="SILENT RANSOM emblem">
  <defs>
    <radialGradient id="g-silentransom" cx="50%" cy="46%" r="62%">
      <stop offset="0%" stop-color="#8b5cf6" stop-opacity="0.22"/><stop offset="100%" stop-color="#8b5cf6" stop-opacity="0"/>
    </radialGradient>
    <filter id="f-silentransom" x="-40%" y="-40%" width="180%" height="180%">
      <feGaussianBlur stdDeviation="4" result="b"/><feMerge><feMergeNode in="b"/><feMergeNode in="SourceGraphic"/></feMerge>
    </filter>
    <g id="sig-silentransom">
    <path d="M238 66 Q224 42 204 34 M242 66 Q256 42 276 34" fill="none" stroke="#bfa5fa" stroke-width="4" stroke-linecap="round"/>
    <path d="M222 46 L215 44 M212 39 L205 38 M258 46 L265 44 M268 39 L275 38" fill="none" stroke="#bfa5fa" stroke-width="2.5" stroke-linecap="round" stroke-opacity="0.8"/>
    <ellipse cx="240" cy="106" rx="9" ry="38" fill="none" stroke="#bfa5fa" stroke-width="4.5"/>
    <path d="M233 92 H247 M232 106 H248 M233 120 H247" stroke="#8b5cf6" stroke-width="2.5" stroke-opacity="0.8"/>
    <path d="M231 82 Q178 50 150 62 Q130 80 146 104 Q164 122 202 118 Q224 112 231 96 Z" fill="#8b5cf6" fill-opacity="0.10" stroke="#8b5cf6" stroke-width="4.5" stroke-linejoin="round"/>
    <path d="M249 82 Q302 50 330 62 Q350 80 334 104 Q316 122 278 118 Q256 112 249 96 Z" fill="#8b5cf6" fill-opacity="0.10" stroke="#8b5cf6" stroke-width="4.5" stroke-linejoin="round"/>
    <path d="M231 118 Q196 132 189 158 Q186 176 199 182 Q210 185 213 202 Q222 191 220 170 Q228 148 233 134 Z" fill="#8b5cf6" fill-opacity="0.10" stroke="#8b5cf6" stroke-width="4.5" stroke-linejoin="round"/>
    <path d="M249 118 Q284 132 291 158 Q294 176 281 182 Q270 185 267 202 Q258 191 260 170 Q252 148 247 134 Z" fill="#8b5cf6" fill-opacity="0.10" stroke="#8b5cf6" stroke-width="4.5" stroke-linejoin="round"/>
    <circle cx="184" cy="84" r="8" fill="none" stroke="#8b5cf6" stroke-width="3"/><circle cx="184" cy="84" r="2.2" fill="#f0eafe"/>
    <circle cx="296" cy="84" r="8" fill="none" stroke="#8b5cf6" stroke-width="3"/><circle cx="296" cy="84" r="2.2" fill="#f0eafe"/>
    </g>
  </defs>
  <rect width="480" height="220" fill="#141418"/>
  <rect width="480" height="220" fill="url(#g-silentransom)"/>
  <g stroke="#8b5cf6" stroke-opacity="0.07" stroke-width="1"><path d="M0 55H480M0 110H480M0 165H480M96 0V220M192 0V220M288 0V220M384 0V220"/></g>
  <use href="#sig-silentransom" transform="translate(316 138) scale(2.6) translate(-240 -104)" opacity="0.055"/>
  <g stroke="#8b5cf6" stroke-opacity="0.55" stroke-width="2" fill="none"><path d="M14 30V14H30M450 14H466V30M466 190V206H450M30 206H14V190"/></g>
  <g stroke="#8b5cf6" stroke-opacity="0.30" stroke-width="1.2" fill="none">
    <circle cx="240" cy="104" r="86"/>
    <path d="M240 8 V26 M240 182 V200 M144 104 H126 M336 104 H354"/>
  </g>
  <rect x="8" y="8" width="464" height="204" rx="4" fill="none" stroke="#9b59b6" stroke-width="1.5" stroke-opacity="0.65"/><text x="240" y="21" text-anchor="middle" font-family="'Space Mono',monospace" font-size="8.5" fill="#9b59b6" fill-opacity="0.85" letter-spacing="3">LINE: CONTI</text>
  <g filter="url(#f-silentransom)"><use href="#sig-silentransom"/></g>
  <g stroke="#9b59b6" stroke-width="2.5" fill="none" stroke-opacity="0.9" stroke-linejoin="miter"><path d="M414 36 L426 26 L438 36 M414 48 L426 38 L438 48 M414 60 L426 50 L438 60"/></g><text x="426" y="76" text-anchor="middle" font-family="'Space Mono',monospace" font-size="7.5" fill="#9b59b6" fill-opacity="0.75" letter-spacing="2">CONTI</text>
  
  <circle cx="316" cy="36" r="3.5" fill="#2ecc71">
    <animate attributeName="opacity" values="1;0.15;1" dur="2s" repeatCount="indefinite"/>
  </circle>
  <text x="382" y="40" text-anchor="end" font-family="'Space Mono',monospace" font-size="10" fill="#2ecc71" fill-opacity="0.85" letter-spacing="2">ACTIVE</text>
  <text x="36" y="203" font-family="'Space Mono',monospace" font-size="10" fill="#8b5cf6" fill-opacity="0.75" letter-spacing="2">SILENT RANSOM</text>
  <text x="444" y="203" text-anchor="end" font-family="'Space Mono',monospace" font-size="10" fill="#8b5cf6" fill-opacity="0.45" letter-spacing="2">SIG-10</text>
  <text x="318" y="200" text-anchor="end" font-family="'Space Mono',monospace" font-size="8.5" fill="#8b5cf6" fill-opacity="0.55" letter-spacing="2">GEN 4</text><path d="M328 196 L333 191 L338 196 L333 201 Z" fill="#8b5cf6" fill-opacity="0.30"/><path d="M342 196 L347 191 L352 196 L347 201 Z" fill="#8b5cf6" fill-opacity="0.30"/><path d="M356 196 L361 191 L366 196 L361 201 Z" fill="#8b5cf6" fill-opacity="0.30"/><path d="M370 196 L375 191 L380 196 L375 201 Z" fill="#8b5cf6" fill-opacity="1"/>
</svg>