<svg viewBox="0 0 480 220" xmlns="http://www.w3.org/2000/svg" role="img" aria-label="THE GENTLEMEN emblem">
  <defs>
    <radialGradient id="g-thegentlemen" cx="50%" cy="46%" r="62%">
      <stop offset="0%" stop-color="#c9a84c" stop-opacity="0.22"/><stop offset="100%" stop-color="#c9a84c" stop-opacity="0"/>
    </radialGradient>
    <filter id="f-thegentlemen" x="-40%" y="-40%" width="180%" height="180%">
      <feGaussianBlur stdDeviation="4" result="b"/><feMerge><feMergeNode in="b"/><feMergeNode in="SourceGraphic"/></feMerge>
    </filter>
    <g id="sig-thegentlemen">
    <path d="M192 130 H288" stroke="#c9a84c" stroke-width="5" stroke-linecap="round"/>
    <path d="M212 130 V78 Q240 68 268 78 V130" fill="#c9a84c" fill-opacity="0.07" stroke="#c9a84c" stroke-width="5" stroke-linejoin="round"/>
    <path d="M212 106 H268" stroke="#e1cf9d" stroke-width="3" stroke-opacity="0.9"/>
    <circle cx="296" cy="146" r="13" fill="none" stroke="#e1cf9d" stroke-width="3.5"/>
    <circle cx="291" cy="141" r="2" fill="#f8f4e8" fill-opacity="0.9"/>
    <path d="M296 159 Q294 172 282 176" fill="none" stroke="#c9a84c" stroke-width="2.5" stroke-opacity="0.8"/>
    <path d="M226 152 L240 162 L254 152" fill="none" stroke="#c9a84c" stroke-width="3.5" stroke-linecap="round" stroke-linejoin="miter"/>
    </g>
  </defs>
  <rect width="480" height="220" fill="#141418"/>
  <rect width="480" height="220" fill="url(#g-thegentlemen)"/>
  <g stroke="#c9a84c" stroke-opacity="0.07" stroke-width="1"><path d="M0 55H480M0 110H480M0 165H480M96 0V220M192 0V220M288 0V220M384 0V220"/></g>
  <use href="#sig-thegentlemen" transform="translate(316 138) scale(2.6) translate(-240 -104)" opacity="0.055"/>
  <g stroke="#c9a84c" stroke-opacity="0.55" stroke-width="2" fill="none"><path d="M14 30V14H30M450 14H466V30M466 190V206H450M30 206H14V190"/></g>
  <g stroke="#c9a84c" stroke-opacity="0.30" stroke-width="1.2" fill="none">
    <circle cx="240" cy="104" r="86"/>
    <path d="M240 8 V26 M240 182 V200 M144 104 H126 M336 104 H354"/>
  </g>
  
  <g filter="url(#f-thegentlemen)"><use href="#sig-thegentlemen"/></g>
  
  
  <circle cx="378" cy="36" r="3.5" fill="#2ecc71">
    <animate attributeName="opacity" values="1;0.15;1" dur="2s" repeatCount="indefinite"/>
  </circle>
  <text x="444" y="40" text-anchor="end" font-family="'Space Mono',monospace" font-size="10" fill="#2ecc71" fill-opacity="0.85" letter-spacing="2">ACTIVE</text>
  <text x="36" y="203" font-family="'Space Mono',monospace" font-size="10" fill="#c9a84c" fill-opacity="0.75" letter-spacing="2">THE GENTLEMEN</text>
  <text x="444" y="203" text-anchor="end" font-family="'Space Mono',monospace" font-size="10" fill="#c9a84c" fill-opacity="0.45" letter-spacing="2">SIG-11</text>
  
</svg>