<svg viewBox="0 0 480 220" xmlns="http://www.w3.org/2000/svg" role="img" aria-label="TRICKBOT emblem">
  <defs>
    <radialGradient id="g-trickbot" cx="50%" cy="46%" r="62%">
      <stop offset="0%" stop-color="#d35400" stop-opacity="0.22"/><stop offset="100%" stop-color="#d35400" stop-opacity="0"/>
    </radialGradient>
    <filter id="f-trickbot" x="-40%" y="-40%" width="180%" height="180%">
      <feGaussianBlur stdDeviation="4" result="b"/><feMerge><feMergeNode in="b"/><feMergeNode in="SourceGraphic"/></feMerge>
    </filter>
    <g id="sig-trickbot">
    <path d="M202 60 H278 M240 42 V78" stroke="#e7a173" stroke-width="4.5" stroke-linecap="round"/>
    <path d="M210 62 L206 116 M240 78 L240 122 M270 62 L274 116" stroke="#d35400" stroke-width="2.5" stroke-opacity="0.85"/>
    <rect x="200" y="116" width="11" height="11" fill="#d35400" fill-opacity="0.15" stroke="#d35400" stroke-width="3"/>
    <rect x="234.5" y="122" width="11" height="11" fill="#d35400" fill-opacity="0.15" stroke="#d35400" stroke-width="3"/>
    <rect x="269" y="116" width="11" height="11" fill="#d35400" fill-opacity="0.15" stroke="#d35400" stroke-width="3"/>
    <circle cx="240" cy="127.5" r="2" fill="#f9e9de" fill-opacity="0.95"/>
    <path d="M211 127 L234 132 M269 127 L246 132 M240 133 V150" stroke="#d35400" stroke-width="2" stroke-opacity="0.7"/>
    <rect x="234.5" y="150" width="11" height="11" fill="none" stroke="#d35400" stroke-width="3" stroke-opacity="0.8"/>
    </g>
  </defs>
  <rect width="480" height="220" fill="#141418"/>
  <rect width="480" height="220" fill="url(#g-trickbot)"/>
  <g stroke="#d35400" stroke-opacity="0.07" stroke-width="1"><path d="M0 55H480M0 110H480M0 165H480M96 0V220M192 0V220M288 0V220M384 0V220"/></g>
  <use href="#sig-trickbot" transform="translate(316 138) scale(2.6) translate(-240 -104)" opacity="0.055"/>
  <g stroke="#d35400" stroke-opacity="0.55" stroke-width="2" fill="none"><path d="M14 30V14H30M450 14H466V30M466 190V206H450M30 206H14V190"/></g>
  <g stroke="#d35400" stroke-opacity="0.30" stroke-width="1.2" fill="none">
    <circle cx="240" cy="104" r="86"/>
    <path d="M240 8 V26 M240 182 V200 M144 104 H126 M336 104 H354"/>
  </g>
  
  <g filter="url(#f-trickbot)" opacity="0.55"><use href="#sig-trickbot"/></g>
  
  
  <g transform="rotate(-6 122 70)" opacity="0.9">
    <rect x="58" y="54" width="128" height="30" rx="2" fill="none" stroke="#8a8a94" stroke-width="2"/>
    <text x="122" y="74" text-anchor="middle" font-family="'Space Mono',monospace" font-weight="700" font-size="11.5" fill="#9a9aa4" letter-spacing="2">DEFUNCT 2022</text>
  </g>
  <text x="36" y="203" font-family="'Space Mono',monospace" font-size="10" fill="#d35400" fill-opacity="0.75" letter-spacing="2">TRICKBOT</text>
  <text x="444" y="203" text-anchor="end" font-family="'Space Mono',monospace" font-size="10" fill="#d35400" fill-opacity="0.45" letter-spacing="2">SIG-18</text>
  
</svg>