<svg viewBox="0 0 480 220" xmlns="http://www.w3.org/2000/svg" role="img" aria-label="WORLD LEAKS emblem">
  <defs>
    <radialGradient id="g-worldleaks" cx="50%" cy="46%" r="62%">
      <stop offset="0%" stop-color="#16a085" stop-opacity="0.22"/><stop offset="100%" stop-color="#16a085" stop-opacity="0"/>
    </radialGradient>
    <filter id="f-worldleaks" x="-40%" y="-40%" width="180%" height="180%">
      <feGaussianBlur stdDeviation="4" result="b"/><feMerge><feMergeNode in="b"/><feMergeNode in="SourceGraphic"/></feMerge>
    </filter>
    <g id="sig-worldleaks">
    <circle cx="240" cy="100" r="40" fill="#16a085" fill-opacity="0.07" stroke="#16a085" stroke-width="4.5"/>
    <ellipse cx="240" cy="100" rx="16" ry="40" fill="none" stroke="#16a085" stroke-width="2.5" stroke-opacity="0.65"/>
    <path d="M200 100 H280" stroke="#16a085" stroke-width="2.5" stroke-opacity="0.65"/>
    <path d="M206 78 H274 M206 122 H274" stroke="#16a085" stroke-width="2" stroke-opacity="0.4"/>
    <path d="M214 72 L228 88 L222 100 L230 112 M228 88 L238 84" fill="none" stroke="#e1f3ef" stroke-width="3" stroke-linecap="round" stroke-linejoin="miter" stroke-opacity="0.85"/>
    <path d="M240 140 Q236 154 230 160 Q240 174 250 160 Q244 154 240 140 Z" fill="#16a085" fill-opacity="0.35" stroke="#16a085" stroke-width="3.5" stroke-linejoin="round"/>
    <circle cx="243" cy="160" r="2" fill="#e1f3ef" fill-opacity="0.95"/>
    <circle cx="240" cy="182" r="2.5" fill="#16a085"/>
    </g>
  </defs>
  <rect width="480" height="220" fill="#141418"/>
  <rect width="480" height="220" fill="url(#g-worldleaks)"/>
  <g stroke="#16a085" stroke-opacity="0.07" stroke-width="1"><path d="M0 55H480M0 110H480M0 165H480M96 0V220M192 0V220M288 0V220M384 0V220"/></g>
  <use href="#sig-worldleaks" transform="translate(316 138) scale(2.6) translate(-240 -104)" opacity="0.055"/>
  <g stroke="#16a085" stroke-opacity="0.55" stroke-width="2" fill="none"><path d="M14 30V14H30M450 14H466V30M466 190V206H450M30 206H14V190"/></g>
  <g stroke="#16a085" stroke-opacity="0.30" stroke-width="1.2" fill="none">
    <circle cx="240" cy="104" r="86"/>
    <path d="M240 8 V26 M240 182 V200 M144 104 H126 M336 104 H354"/>
  </g>
  <rect x="8" y="8" width="464" height="204" rx="4" fill="none" stroke="#6b7280" stroke-width="1.5" stroke-opacity="0.65"/><text x="240" y="21" text-anchor="middle" font-family="'Space Mono',monospace" font-size="8.5" fill="#6b7280" fill-opacity="0.85" letter-spacing="3">LINE: HUNTERS INTL</text>
  <g filter="url(#f-worldleaks)" opacity="0.55"><use href="#sig-worldleaks"/></g>
  
  
  <g transform="rotate(-6 122 70)" opacity="0.9">
    <rect x="58" y="54" width="128" height="30" rx="2" fill="none" stroke="#8a8a94" stroke-width="2"/>
    <text x="122" y="74" text-anchor="middle" font-family="'Space Mono',monospace" font-weight="700" font-size="11.5" fill="#9a9aa4" letter-spacing="2">DEFUNCT 2025</text>
  </g>
  <text x="36" y="203" font-family="'Space Mono',monospace" font-size="10" fill="#16a085" fill-opacity="0.75" letter-spacing="2">WORLD LEAKS</text>
  <text x="444" y="203" text-anchor="end" font-family="'Space Mono',monospace" font-size="10" fill="#16a085" fill-opacity="0.45" letter-spacing="2">SIG-14</text>
  <text x="332" y="200" text-anchor="end" font-family="'Space Mono',monospace" font-size="8.5" fill="#16a085" fill-opacity="0.55" letter-spacing="2">GEN 3</text><path d="M342 196 L347 191 L352 196 L347 201 Z" fill="#16a085" fill-opacity="0.30"/><path d="M356 196 L361 191 L366 196 L361 201 Z" fill="#16a085" fill-opacity="0.30"/><path d="M370 196 L375 191 L380 196 L375 201 Z" fill="#16a085" fill-opacity="1"/>
</svg>